<svg xmlns="http://www.w3.org/2000/svg" viewBox="0 0 18 18">
  <path d="M3.836.457c-1.25.121-2.176.883-2.613 2.129l-.121.367-.02 5.86c-.016 6.351-.016 6.296.29 6.953a3.093 3.093 0 0 0 2.245 1.722c.254.043 1.918.063 5.387.063 5.496 0 5.437 0 6.164-.34.434-.2 1.09-.832 1.324-1.273.086-.16.203-.485.266-.727.11-.418.113-.64.113-6.238 0-5.598-.004-5.825-.113-6.239-.332-1.3-1.32-2.144-2.68-2.285C13.48.387 4.457.387 3.836.457Zm10.797.938c.457.187.945.652 1.18 1.125l.183.378v12.149l-.18.375c-.328.695-.886 1.105-1.691 1.262-.605.113-9.645.113-10.3 0-.552-.102-.934-.309-1.313-.72-.356-.382-.52-.777-.598-1.425-.074-.629-.07-10.55.004-11.191.074-.602.23-.985.574-1.356A2.17 2.17 0 0 1 3.5 1.344c.285-.094.664-.102 5.555-.09l5.25.012Zm0 0" style="stroke:none;fill-rule:nonzero;fill:#000;fill-opacity:1"/>
  <path d="M4.422 2.277c-.18.09-.324.22-.414.36-.121.187-.164.215-.29.191-.113-.02-.175.012-.269.129-.11.137-.125.211-.097.418.09.652.101 1.07.039 1.07-.04 0-.13.059-.204.14-.253.247-.152.747.168.872.098.031.145.113.172.27.024.132.114.316.23.449.188.219.188.23.079.265-.215.067-.523.387-.652.676-.16.332-.192.832-.051.781.05-.023.082-.109.082-.238 0-.281.2-.652.469-.883.125-.105.25-.195.273-.195.016 0 .05.074.066.164.043.219.29.492.52.578.18.063.195.082.195.297 0 .371 0 .371.95.36l.859-.012v-.301c0-.5-.254-.93-.692-1.148l-.222-.118.207-.215c.164-.167.215-.269.238-.472.024-.164.063-.258.106-.258.039 0 .14-.062.23-.137.133-.113.16-.18.152-.375-.003-.191-.043-.27-.171-.39L6.23 4.41l.176-.078a.522.522 0 0 0 .274-.613c-.043-.18-.153-.278-.383-.36-.035-.011-.055-.152-.063-.312-.004-.223-.039-.324-.144-.438-.121-.125-.172-.14-.375-.113-.18.024-.242.012-.242-.039 0-.043-.055-.129-.13-.195-.179-.176-.554-.164-.921.015Zm.848.22c.101.241.175.288.375.202.273-.113.386-.004.406.41.015.344.02.352.23.454.114.054.207.132.207.167 0 .043-.015.051-.043.004-.09-.129-.437-.191-1.633-.28-1.117-.09-1.257-.114-1.257-.196 0-.2.062-.27.187-.227.18.067.254.024.375-.215.16-.312.48-.492.887-.503.16-.008.2.023.266.183Zm-.043 1.89a.75.75 0 0 0 .324-.106c.125-.086.195-.097.273-.058.09.05.102.14.102.828v.77l-.547.519c-.305.285-.566.523-.59.523-.02 0-.262-.218-.547-.496-.469-.449-.512-.512-.547-.758-.023-.164-.062-.265-.105-.265-.04 0-.14-.051-.227-.117-.175-.141-.199-.383-.039-.524.106-.098.114-.098.13.082.01.102.05.192.089.211.05.016.066-.11.066-.496v-.512l.125.086c.176.121.547.11.746-.023l.168-.11.204.223c.152.16.253.223.375.223Zm1.082.293c.152.152.027.61-.164.61-.055 0-.067-.446-.016-.587.039-.11.09-.113.18-.023Zm-.563 1.98c.082.043.211.145.293.23.113.118.121.157.055.196-.117.074-.739.133-1.157.101-.304-.015-.39-.042-.53-.18-.192-.183-.278-.398-.13-.32.055.028.168.13.258.227.098.094.2.172.238.172.04 0 .192-.11.344-.25.293-.274.39-.3.63-.176Zm0 0" style="stroke:none;fill-rule:nonzero;fill:#fff;fill-opacity:1"/>
  <path d="M4.047 4.527c-.121.118-.063.254.113.254.117 0 .133-.023.117-.152-.023-.18-.113-.219-.23-.102Zm1.312 0c-.093.114-.027.254.114.254.062 0 .129-.039.148-.086.031-.082-.062-.25-.148-.25-.024 0-.075.04-.114.082Zm-1.285.77c-.11.11-.078.254.055.351.098.067.273.09.695.09.656 0 .785-.05.75-.308l-.015-.172-.707-.016c-.5-.012-.727.008-.778.055Zm1.344.16c0 .031-.238.055-.594.055-.355 0-.594-.024-.594-.055 0-.035.239-.059.594-.059.356 0 .594.024.594.059Zm7.227-3.117c-.282.078-.32.129-.407.445-.054.215-.066.223-.277.23-.461.016-.79.372-.79.856 0 .203.036.281.188.434.18.18.18.18.082.34a.692.692 0 0 0-.101.277c0 .164.2.46.336.508.101.03.117.078.117.39 0 .34.012.371.156.461.086.051.16.102.172.11.012.004-.121.144-.289.312-.242.234-.332.367-.398.606-.125.43-.121.62.02.62.097 0 .112-.038.112-.242 0-.128.051-.335.11-.46.094-.22.511-.645.625-.645.027 0 .078.094.113.215.09.34.399.57.774.57.316 0 .57-.18.714-.512l.125-.28.164.128c.344.266.536.613.536.977 0 .218.02.258.101.242.074-.02.098-.074.086-.266a1.402 1.402 0 0 0-.762-1.191c-.125-.063-.214-.133-.203-.152.114-.25.524-.856.586-.856.14 0 .367-.254.395-.457.027-.168.008-.23-.14-.398-.22-.247-.22-.434-.013-.66.188-.2.239-.399.172-.657-.05-.18-.285-.418-.414-.418-.035 0-.09-.054-.117-.12a.753.753 0 0 0-.215-.24c-.152-.112-.164-.112-.594-.015a13.3 13.3 0 0 0-.55.125c-.102.031-.114.016-.094-.133.031-.21-.02-.234-.32-.144Zm.023.305c-.125.132-.2.144-.2.027 0-.05.06-.106.134-.137.168-.066.191-.027.066.11Zm1.426.03c.226.16.16.24-.16.188a3.512 3.512 0 0 0-.614-.023c-.172.012-.273.008-.23-.012.074-.031.77-.223.848-.234.015-.008.09.031.156.082Zm-2.008.626c.023.09-.016.101-.281.11-.313.003-.313.003-.18-.102.164-.13.426-.137.46-.008Zm.738.664c.114.047.278.086.364.086.078 0 .257.054.394.117.191.09.32.113.535.098l.281-.032-.039.352c-.039.398.047.55.149.258.074-.203.137-.219.219-.059.101.184-.028.434-.247.492-.136.032-.214.118-.351.36-.215.37-.797 1.168-.86 1.164-.019 0-.312-.156-.66-.356l-.617-.347.02-.407c.02-.386.011-.402-.114-.402-.27 0-.414-.3-.273-.57.09-.164.168-.13.168.066 0 .137.023.172.102.152.066-.011.101-.082.113-.242.015-.156.074-.28.215-.43.129-.148.191-.273.191-.394 0-.164.004-.168.102-.086.054.05.191.13.308.18Zm.848 2.914a.578.578 0 0 1-1.063-.117c-.03-.117-.015-.114.301.074.188.105.367.195.402.195.028 0 .141-.101.243-.226.207-.246.28-.207.117.074Zm0 0" style="stroke:none;fill-rule:nonzero;fill:#fff;fill-opacity:1"/>
  <path d="M12.39 4.55c-.062.102.036.231.169.231.109 0 .136-.027.136-.14 0-.114-.027-.141-.136-.141-.079 0-.153.023-.168.05Zm1.305-.01c-.074.065-.039.23.055.265.121.043.273-.098.227-.215-.036-.09-.215-.125-.282-.05Zm-1.113.663c0 .067.102.086.566.086.461 0 .563-.02.563-.086 0-.066-.102-.086-.563-.086-.464 0-.566.02-.566.086ZM8.266 2.668c-.524.246-.836.703-.926 1.355-.027.211-.067.872-.082 1.461-.024.586-.051 1.391-.07 1.782-.032.703-.032.722.085.722.106 0 .118-.035.118-.281 0-.637.558-1.21 1.214-1.238.125-.004.254-.012.29-.004.043.004.07.246.09.734.011.399.03.742.054.762.04.039 1.684.043 1.723.008.027-.028-.137-3.504-.184-3.93-.07-.629-.387-1.113-.883-1.363-.402-.2-1.015-.207-1.43-.008Zm1.164.094c.113.027.32.152.46.277.403.352.485.645.547 1.879.032.562.06 1.05.06 1.09 0 .054-.075.035-.24-.063a2.662 2.662 0 0 0-.48-.207l-.23-.074.187-.344c.114-.195.215-.488.243-.68a1.66 1.66 0 0 0 .043-.343s-.106-.04-.23-.082a.742.742 0 0 1-.481-.672c0-.273-.102-.55-.223-.617-.149-.078-.2.027-.09.18.191.273.043.808-.273 1.011-.133.078-.246.102-.48.086l-.298-.023.028.367c.023.27.078.469.226.75.13.25.176.383.125.383-.039 0-.242.086-.457.191-.215.11-.394.188-.414.172-.012-.012 0-.535.027-1.168.051-1.125.06-1.14.227-1.445a1.45 1.45 0 0 1 .91-.707c.266-.075.406-.063.813.039Zm.203 1.601c.101.047.183.102.183.133 0 .223-.257.809-.449 1.035-.18.2-.226.297-.226.469 0 .266-.016.293-.196.254-.125-.02-.144-.055-.144-.246 0-.176-.043-.278-.219-.485a1.764 1.764 0 0 1-.422-.87c-.035-.192-.027-.208.09-.208.266 0 .563-.125.738-.312l.18-.192.137.176a.838.838 0 0 0 .328.246Zm.379 1.684c.425.215.46.254.5.578l.035.3-.254-.226c-.242-.207-.656-.398-.883-.398-.078 0-.101-.047-.101-.23v-.239l.21.035c.114.024.333.102.493.18Zm-5.934 3.11c-.793.28-1.195 1.019-.953 1.757.086.25.086.297.008.45-.184.343-.11.538.332.886.074.059.09.188.09.633 0 .55-.004.566-.192.812-.199.254-.343.727-.312.98l.023.141.68-.015a7.82 7.82 0 0 0 .715-.04c.078-.05.05-.48-.047-.671-.106-.223-.281-.348-.567-.41l-.214-.043.222-.153c.43-.28 1.317-.332 1.782-.097.425.218.73.687.73 1.125 0 .191.02.226.121.226.106 0 .113-.023.078-.293-.078-.613-.394-1.023-.965-1.254-.18-.074-.34-.168-.351-.214-.012-.051.082-.141.21-.215.13-.067.298-.223.38-.34.082-.121.183-.215.222-.215.04 0 .149-.062.239-.14.148-.126.168-.18.207-.63.03-.273.05-.664.05-.867-.003-.62-.324-1.097-.918-1.363-.37-.168-1.175-.191-1.57-.05Zm.793 1.003c.102.05.375.281.621.516l.434.433v.32c0 .255.015.329.082.329.062 0 .086-.063.086-.238 0-.223 0-.23.113-.13.23.208.063.65-.25.65-.09 0-.152.038-.172.105-.058.18-.457.5-.71.566-.454.125-.876-.04-1.18-.461-.137-.18-.211-.234-.313-.223-.082.012-.168-.035-.246-.136-.148-.184-.152-.32-.02-.45.09-.097.098-.09.125.094.016.121.063.192.114.192.062 0 .09-.094.117-.391.047-.543.238-1.02.469-1.16a.757.757 0 0 1 .73-.016Zm-.539 2.828c.02.09-.004.125-.055.106-.039-.016-.086-.082-.09-.153-.019-.09.004-.12.055-.105.04.016.086.086.09.152Zm.746.004c0 .031-.125.059-.281.059-.152 0-.281-.028-.281-.059 0-.031.129-.055.28-.055.157 0 .282.024.282.055Zm0 0" style="stroke:none;fill-rule:nonzero;fill:#fff;fill-opacity:1"/>
  <path d="M3.965 11.285c-.04.11.125.25.25.207.047-.015.074-.086.062-.152-.023-.152-.254-.195-.312-.055Zm1.34.05c0 .11.027.142.136.142.141 0 .204-.086.16-.215-.015-.035-.09-.067-.16-.067-.109 0-.136.028-.136.14Zm-.864.524c-.23.25-.027.602.356.602s.601-.383.348-.61c-.145-.132-.586-.128-.704.008Zm.61.235c0 .105-.035.144-.137.156-.219.035-.398-.04-.398-.152 0-.133.082-.168.336-.157.171.012.199.028.199.153Zm3.695-2.918c-.484.078-1.004.363-1.254.695-.203.266-.383.723-.472 1.184l-.04.207.293-.149c.352-.18.391-.09.09.211-.277.274-.246.63.078.809.09.055.204.18.25.289.086.18.079.195-.05.387-.141.214-.176.46-.079.636.04.07.04.117 0 .14-.113.071-.328.567-.34.786-.015.332-.003.367.087.367.062 0 .082-.062.082-.226 0-.309.199-.696.476-.934l.23-.195.044.129c.21.55.402.718.82.718.41 0 .75-.253.828-.617.047-.215.09-.207.332 0 .25.219.43.59.43.887 0 .2.02.238.113.238.09 0 .113-.039.113-.168 0-.23-.156-.672-.308-.879-.102-.129-.121-.191-.074-.27.082-.151.015-.53-.122-.675-.101-.105-.105-.144-.05-.332.035-.113.097-.207.136-.207.04 0 .137-.078.22-.18.198-.23.163-.511-.071-.726-.235-.207-.293-.563-.211-1.137.113-.73-.559-1.16-1.55-.988Zm1.344 2.12c.015.415.027.462.125.462.09 0 .11-.04.11-.176 0-.23.136-.187.16.05.023.227-.067.395-.227.415-.078.012-.14.086-.192.234-.175.504-.554.77-1.101.77-.547-.008-.985-.309-1.13-.79-.042-.152-.1-.222-.167-.222-.238 0-.379-.406-.195-.559.066-.054.082-.039.101.09.028.278.184.196.203-.101.016-.258.02-.266.309-.395.258-.117.367-.133.914-.12.43.01.672-.013.79-.063.097-.047.198-.075.226-.067.035.008.062.219.074.473Zm-.79 2.036c-.03.14-.355.195-.527.09-.078-.05-.14-.113-.14-.137 0-.02.152-.039.34-.039.27 0 .336.02.328.086Zm-.327.336c.168 0 .27-.043.422-.172.16-.14.203-.16.23-.09.05.133-.145.48-.32.57a.907.907 0 0 1-.367.086c-.278 0-.586-.296-.586-.562v-.18l.195.176c.152.129.254.172.426.172Zm0 0" style="stroke:none;fill-rule:nonzero;fill:#fff;fill-opacity:1"/>
  <path d="M8.238 11.277c-.097.114-.027.254.114.254.062 0 .128-.039.144-.086.035-.082-.059-.25-.144-.25-.024 0-.075.04-.114.082Zm1.207.059c-.023.05 0 .129.047.172.113.113.281.039.258-.113-.023-.145-.254-.196-.305-.06Zm-1.058.516c-.125.125.242.355.558.355.27 0 .64-.2.547-.293-.047-.047-.12-.035-.254.035-.254.117-.363.11-.617-.02-.105-.062-.219-.093-.234-.077Zm4.37-2.508c-.136.078-.206.094-.25.054-.12-.12-.269-.062-.421.192-.106.176-.191.25-.277.254-.145 0-.243.152-.243.386 0 .114-.027.176-.078.176-.148 0-.129.14.055.418l.187.274-.164.152c-.336.316-.254.77.172.945.145.063.223.13.223.196 0 .171.184.433.387.558l.191.117-.266.13c-.566.265-.898.78-.863 1.335l.016.29.82-.016c.535-.016.832-.043.856-.086.023-.04.046-.219.046-.403v-.343l-.25-.067c-.23-.062-.652-.36-.652-.457 0-.023.059-.074.14-.105.13-.063.157-.051.298.105.273.297.898.266 1-.062.05-.153.129-.14.441.05.367.239.563.551.59.97.023.28.039.331.133.331.082 0 .105-.039.105-.175 0-.54-.316-1.063-.808-1.317l-.31-.164.25-.23c.153-.141.259-.297.282-.41.024-.102.078-.192.133-.208.203-.062.39-.265.43-.445.039-.234-.094-.516-.297-.613l-.149-.063.04-.582a9.66 9.66 0 0 1 .07-.738c.039-.203-.11-.367-.297-.32-.094.027-.133.004-.16-.078-.043-.13-.188-.149-.34-.036-.098.067-.117.063-.203-.043-.098-.12-.102-.12-.274-.02-.156.099-.183.099-.261.02-.11-.109-.07-.113-.301.028Zm1.509 1.332c.054.039.054.219-.012.933-.09.985-.117 1.059-.555 1.278-.433.218-1.21.078-1.433-.266-.051-.07-.133-.414-.192-.762-.062-.351-.117-.71-.133-.796-.035-.172.008-.2.559-.348.309-.082 1.645-.113 1.766-.04Zm-2.36 1.316c0 .078-.129.051-.238-.05-.129-.114-.129-.399-.004-.54.094-.101.102-.097.168.223.04.184.066.344.074.367Zm2.844-.273c-.04.14-.188.32-.258.32-.058 0-.062-.512-.008-.652.036-.086.051-.082.168.054.094.114.125.196.098.278Zm-1.207 1.539c0 .18-.543.254-.7.097-.05-.046-.09-.101-.09-.125 0-.023.18-.039.395-.039.27 0 .395.024.395.067Zm0 0" style="stroke:none;fill-rule:nonzero;fill:#fff;fill-opacity:1"/>
  <path d="M12.348 10.918c-.059.027-.102.098-.102.145 0 .07.031.082.156.046.188-.046.258-.113.215-.191-.05-.078-.148-.078-.27 0Zm1.324.023c-.04.106-.027.121.168.168.133.036.152.024.152-.074 0-.172-.258-.246-.32-.094Zm-.664.153c-.203.105-.254.23-.254.59 0 .293-.02.359-.113.41-.125.066-.153.277-.047.383.101.101 1.086.09 1.176-.012.093-.125.043-.336-.098-.399-.106-.046-.129-.101-.129-.34 0-.398-.05-.527-.23-.617-.188-.093-.165-.093-.305-.015Zm.297.531.015.355h-.343v-.324c0-.367.03-.418.199-.394.094.015.113.062.129.363Zm-.938-.324c-.113.066-.055.258.074.258.079 0 .114-.04.114-.133 0-.153-.075-.2-.188-.125Zm1.406.004c-.105.062-.05.254.079.254.074 0 .12-.043.132-.118.016-.129-.097-.207-.21-.136Zm0 0" style="stroke:none;fill-rule:nonzero;fill:#fff;fill-opacity:1"/>
</svg>
