<?xml version="1.0" encoding="UTF-8"?>
<svg xmlns="http://www.w3.org/2000/svg" xmlns:xlink="http://www.w3.org/1999/xlink" width="18" height="18" viewBox="0 0 18 18" version="1.1">
<g id="surface1">
<path style=" stroke:none;fill-rule:nonzero;fill:rgb(0%,0%,0%);fill-opacity:1;" d="M 3.835938 0.457031 C 2.585938 0.578125 1.660156 1.339844 1.222656 2.585938 L 1.101562 2.953125 L 1.082031 8.8125 C 1.066406 15.164062 1.066406 15.109375 1.371094 15.765625 C 1.789062 16.660156 2.644531 17.320312 3.617188 17.488281 C 3.871094 17.53125 5.535156 17.550781 9.003906 17.550781 C 14.5 17.550781 14.441406 17.550781 15.167969 17.210938 C 15.601562 17.011719 16.257812 16.378906 16.492188 15.9375 C 16.578125 15.777344 16.695312 15.453125 16.757812 15.210938 C 16.867188 14.792969 16.871094 14.570312 16.871094 8.972656 C 16.871094 3.375 16.867188 3.148438 16.757812 2.734375 C 16.425781 1.433594 15.4375 0.589844 14.078125 0.449219 C 13.480469 0.386719 4.457031 0.386719 3.835938 0.457031 Z M 14.632812 1.394531 C 15.089844 1.582031 15.578125 2.046875 15.8125 2.519531 L 15.996094 2.898438 L 15.996094 15.046875 L 15.816406 15.421875 C 15.488281 16.117188 14.929688 16.527344 14.125 16.683594 C 13.519531 16.796875 4.480469 16.796875 3.824219 16.683594 C 3.273438 16.582031 2.890625 16.375 2.511719 15.964844 C 2.15625 15.582031 1.992188 15.1875 1.914062 14.539062 C 1.839844 13.910156 1.84375 3.988281 1.917969 3.347656 C 1.992188 2.746094 2.148438 2.363281 2.492188 1.992188 C 2.792969 1.664062 3.09375 1.472656 3.5 1.34375 C 3.785156 1.25 4.164062 1.242188 9.054688 1.253906 L 14.304688 1.265625 Z M 14.632812 1.394531 "/>
<path style=" stroke:none;fill-rule:nonzero;fill:rgb(0%,0%,0%);fill-opacity:1;" d="M 4.421875 2.277344 C 4.242188 2.367188 4.097656 2.496094 4.007812 2.636719 C 3.886719 2.824219 3.84375 2.851562 3.71875 2.828125 C 3.605469 2.808594 3.542969 2.839844 3.449219 2.957031 C 3.339844 3.09375 3.324219 3.167969 3.351562 3.375 C 3.441406 4.027344 3.453125 4.445312 3.390625 4.445312 C 3.351562 4.445312 3.261719 4.503906 3.1875 4.585938 C 2.933594 4.832031 3.035156 5.332031 3.355469 5.457031 C 3.453125 5.488281 3.5 5.570312 3.527344 5.726562 C 3.550781 5.859375 3.640625 6.042969 3.757812 6.175781 C 3.945312 6.394531 3.945312 6.40625 3.835938 6.441406 C 3.621094 6.507812 3.3125 6.828125 3.183594 7.117188 C 3.023438 7.449219 2.992188 7.949219 3.132812 7.898438 C 3.183594 7.875 3.214844 7.789062 3.214844 7.660156 C 3.214844 7.378906 3.414062 7.007812 3.683594 6.777344 C 3.808594 6.671875 3.933594 6.582031 3.957031 6.582031 C 3.972656 6.582031 4.007812 6.65625 4.023438 6.746094 C 4.066406 6.964844 4.3125 7.238281 4.542969 7.324219 C 4.722656 7.386719 4.738281 7.40625 4.738281 7.621094 C 4.738281 7.992188 4.738281 7.992188 5.6875 7.980469 L 6.546875 7.96875 L 6.546875 7.667969 C 6.546875 7.167969 6.292969 6.738281 5.855469 6.519531 L 5.632812 6.402344 L 5.839844 6.1875 C 6.003906 6.019531 6.054688 5.917969 6.078125 5.714844 C 6.101562 5.550781 6.140625 5.457031 6.183594 5.457031 C 6.222656 5.457031 6.324219 5.394531 6.414062 5.320312 C 6.546875 5.207031 6.574219 5.140625 6.566406 4.945312 C 6.5625 4.753906 6.523438 4.675781 6.394531 4.554688 L 6.230469 4.410156 L 6.40625 4.332031 C 6.636719 4.21875 6.742188 3.976562 6.679688 3.71875 C 6.636719 3.539062 6.527344 3.441406 6.296875 3.359375 C 6.261719 3.347656 6.242188 3.207031 6.234375 3.046875 C 6.230469 2.824219 6.195312 2.722656 6.089844 2.609375 C 5.96875 2.484375 5.917969 2.46875 5.714844 2.496094 C 5.535156 2.519531 5.472656 2.507812 5.472656 2.457031 C 5.472656 2.414062 5.417969 2.328125 5.34375 2.261719 C 5.164062 2.085938 4.789062 2.097656 4.421875 2.277344 Z M 5.269531 2.496094 C 5.371094 2.738281 5.445312 2.785156 5.644531 2.699219 C 5.917969 2.585938 6.03125 2.695312 6.050781 3.109375 C 6.066406 3.453125 6.070312 3.460938 6.28125 3.5625 C 6.394531 3.617188 6.488281 3.695312 6.488281 3.730469 C 6.488281 3.773438 6.472656 3.78125 6.445312 3.734375 C 6.355469 3.605469 6.007812 3.542969 4.8125 3.453125 C 3.695312 3.363281 3.554688 3.339844 3.554688 3.257812 C 3.554688 3.058594 3.617188 2.988281 3.742188 3.03125 C 3.921875 3.097656 3.996094 3.054688 4.117188 2.816406 C 4.277344 2.503906 4.597656 2.324219 5.003906 2.3125 C 5.164062 2.304688 5.203125 2.335938 5.269531 2.496094 Z M 5.226562 4.386719 C 5.316406 4.386719 5.460938 4.335938 5.550781 4.28125 C 5.675781 4.195312 5.746094 4.183594 5.824219 4.222656 C 5.914062 4.273438 5.925781 4.363281 5.925781 5.050781 L 5.925781 5.820312 L 5.378906 6.339844 C 5.074219 6.625 4.8125 6.863281 4.789062 6.863281 C 4.769531 6.863281 4.527344 6.644531 4.242188 6.367188 C 3.773438 5.917969 3.730469 5.855469 3.695312 5.609375 C 3.671875 5.445312 3.632812 5.34375 3.589844 5.34375 C 3.550781 5.34375 3.449219 5.292969 3.363281 5.226562 C 3.1875 5.085938 3.164062 4.84375 3.324219 4.703125 C 3.429688 4.605469 3.4375 4.605469 3.453125 4.785156 C 3.464844 4.886719 3.503906 4.976562 3.542969 4.996094 C 3.59375 5.011719 3.609375 4.886719 3.609375 4.5 L 3.609375 3.988281 L 3.734375 4.074219 C 3.910156 4.195312 4.28125 4.183594 4.480469 4.050781 L 4.648438 3.941406 L 4.851562 4.164062 C 5.003906 4.324219 5.105469 4.386719 5.226562 4.386719 Z M 6.308594 4.679688 C 6.460938 4.832031 6.335938 5.289062 6.144531 5.289062 C 6.089844 5.289062 6.078125 4.84375 6.128906 4.703125 C 6.167969 4.59375 6.21875 4.589844 6.308594 4.679688 Z M 5.746094 6.660156 C 5.828125 6.703125 5.957031 6.804688 6.039062 6.890625 C 6.152344 7.007812 6.160156 7.046875 6.09375 7.085938 C 5.976562 7.160156 5.355469 7.21875 4.9375 7.1875 C 4.632812 7.171875 4.546875 7.144531 4.40625 7.007812 C 4.214844 6.824219 4.128906 6.609375 4.277344 6.6875 C 4.332031 6.714844 4.445312 6.816406 4.535156 6.914062 C 4.632812 7.007812 4.734375 7.085938 4.773438 7.085938 C 4.8125 7.085938 4.964844 6.976562 5.117188 6.835938 C 5.410156 6.5625 5.507812 6.535156 5.746094 6.660156 Z M 5.746094 6.660156 "/>
<path style=" stroke:none;fill-rule:nonzero;fill:rgb(0%,0%,0%);fill-opacity:1;" d="M 4.046875 4.527344 C 3.925781 4.644531 3.984375 4.78125 4.160156 4.78125 C 4.277344 4.78125 4.292969 4.757812 4.277344 4.628906 C 4.253906 4.449219 4.164062 4.410156 4.046875 4.527344 Z M 4.046875 4.527344 "/>
<path style=" stroke:none;fill-rule:nonzero;fill:rgb(0%,0%,0%);fill-opacity:1;" d="M 5.359375 4.527344 C 5.265625 4.640625 5.332031 4.78125 5.472656 4.78125 C 5.535156 4.78125 5.601562 4.742188 5.621094 4.695312 C 5.652344 4.613281 5.558594 4.445312 5.472656 4.445312 C 5.449219 4.445312 5.398438 4.484375 5.359375 4.527344 Z M 5.359375 4.527344 "/>
<path style=" stroke:none;fill-rule:nonzero;fill:rgb(0%,0%,0%);fill-opacity:1;" d="M 4.074219 5.296875 C 3.964844 5.40625 3.996094 5.550781 4.128906 5.648438 C 4.226562 5.714844 4.402344 5.738281 4.824219 5.738281 C 5.480469 5.738281 5.609375 5.6875 5.574219 5.429688 L 5.558594 5.257812 L 4.851562 5.242188 C 4.351562 5.230469 4.125 5.25 4.074219 5.296875 Z M 5.417969 5.457031 C 5.417969 5.488281 5.179688 5.511719 4.824219 5.511719 C 4.46875 5.511719 4.230469 5.488281 4.230469 5.457031 C 4.230469 5.421875 4.46875 5.398438 4.824219 5.398438 C 5.179688 5.398438 5.417969 5.421875 5.417969 5.457031 Z M 5.417969 5.457031 "/>
<path style=" stroke:none;fill-rule:nonzero;fill:rgb(0%,0%,0%);fill-opacity:1;" d="M 12.644531 2.339844 C 12.363281 2.417969 12.324219 2.46875 12.238281 2.785156 C 12.183594 3 12.171875 3.007812 11.960938 3.015625 C 11.5 3.03125 11.171875 3.386719 11.171875 3.871094 C 11.171875 4.074219 11.207031 4.152344 11.359375 4.304688 C 11.539062 4.484375 11.539062 4.484375 11.441406 4.644531 C 11.386719 4.734375 11.339844 4.859375 11.339844 4.921875 C 11.339844 5.085938 11.539062 5.382812 11.675781 5.429688 C 11.777344 5.460938 11.792969 5.507812 11.792969 5.820312 C 11.792969 6.160156 11.804688 6.191406 11.949219 6.28125 C 12.035156 6.332031 12.109375 6.382812 12.121094 6.390625 C 12.132812 6.394531 12 6.535156 11.832031 6.703125 C 11.589844 6.9375 11.5 7.070312 11.433594 7.308594 C 11.308594 7.738281 11.3125 7.929688 11.453125 7.929688 C 11.550781 7.929688 11.566406 7.890625 11.566406 7.6875 C 11.566406 7.558594 11.617188 7.351562 11.675781 7.226562 C 11.769531 7.007812 12.1875 6.582031 12.300781 6.582031 C 12.328125 6.582031 12.378906 6.675781 12.414062 6.796875 C 12.503906 7.136719 12.8125 7.367188 13.1875 7.367188 C 13.503906 7.367188 13.757812 7.1875 13.902344 6.855469 L 14.027344 6.574219 L 14.191406 6.703125 C 14.535156 6.96875 14.726562 7.316406 14.726562 7.679688 C 14.726562 7.898438 14.746094 7.9375 14.828125 7.921875 C 14.902344 7.902344 14.925781 7.847656 14.914062 7.65625 C 14.890625 7.144531 14.601562 6.695312 14.152344 6.464844 C 14.027344 6.402344 13.9375 6.332031 13.949219 6.3125 C 14.0625 6.0625 14.472656 5.457031 14.535156 5.457031 C 14.675781 5.457031 14.902344 5.203125 14.929688 5 C 14.957031 4.832031 14.9375 4.769531 14.789062 4.601562 C 14.570312 4.355469 14.570312 4.167969 14.777344 3.941406 C 14.964844 3.742188 15.015625 3.542969 14.949219 3.285156 C 14.898438 3.105469 14.664062 2.867188 14.535156 2.867188 C 14.5 2.867188 14.445312 2.8125 14.417969 2.746094 C 14.382812 2.675781 14.292969 2.570312 14.203125 2.507812 C 14.050781 2.394531 14.039062 2.394531 13.609375 2.492188 C 13.371094 2.542969 13.125 2.597656 13.058594 2.617188 C 12.957031 2.648438 12.945312 2.632812 12.964844 2.484375 C 12.996094 2.273438 12.945312 2.25 12.644531 2.339844 Z M 12.667969 2.644531 C 12.542969 2.777344 12.46875 2.789062 12.46875 2.671875 C 12.46875 2.621094 12.527344 2.566406 12.601562 2.535156 C 12.769531 2.46875 12.792969 2.507812 12.667969 2.644531 Z M 14.09375 2.675781 C 14.320312 2.835938 14.253906 2.914062 13.933594 2.863281 C 13.773438 2.839844 13.503906 2.828125 13.320312 2.839844 C 13.148438 2.851562 13.046875 2.847656 13.089844 2.828125 C 13.164062 2.796875 13.859375 2.605469 13.9375 2.59375 C 13.953125 2.585938 14.027344 2.625 14.09375 2.675781 Z M 12.085938 3.300781 C 12.109375 3.390625 12.070312 3.402344 11.804688 3.410156 C 11.492188 3.414062 11.492188 3.414062 11.625 3.308594 C 11.789062 3.179688 12.050781 3.171875 12.085938 3.300781 Z M 12.824219 3.964844 C 12.9375 4.011719 13.101562 4.050781 13.1875 4.050781 C 13.265625 4.050781 13.445312 4.105469 13.582031 4.167969 C 13.773438 4.257812 13.902344 4.28125 14.117188 4.265625 L 14.398438 4.234375 L 14.359375 4.585938 C 14.320312 4.984375 14.40625 5.136719 14.507812 4.84375 C 14.582031 4.640625 14.644531 4.625 14.726562 4.785156 C 14.828125 4.96875 14.699219 5.21875 14.480469 5.277344 C 14.34375 5.308594 14.265625 5.394531 14.128906 5.636719 C 13.914062 6.007812 13.332031 6.804688 13.269531 6.800781 C 13.25 6.800781 12.957031 6.644531 12.609375 6.445312 L 11.992188 6.097656 L 12.011719 5.691406 C 12.03125 5.304688 12.023438 5.289062 11.898438 5.289062 C 11.628906 5.289062 11.484375 4.988281 11.625 4.71875 C 11.714844 4.554688 11.792969 4.589844 11.792969 4.785156 C 11.792969 4.921875 11.816406 4.957031 11.894531 4.9375 C 11.960938 4.925781 11.996094 4.855469 12.007812 4.695312 C 12.023438 4.539062 12.082031 4.414062 12.222656 4.265625 C 12.351562 4.117188 12.414062 3.992188 12.414062 3.871094 C 12.414062 3.707031 12.417969 3.703125 12.515625 3.785156 C 12.570312 3.835938 12.707031 3.914062 12.824219 3.964844 Z M 13.671875 6.878906 C 13.40625 7.328125 12.761719 7.261719 12.609375 6.761719 C 12.578125 6.644531 12.59375 6.648438 12.910156 6.835938 C 13.097656 6.941406 13.277344 7.03125 13.3125 7.03125 C 13.339844 7.03125 13.453125 6.929688 13.554688 6.804688 C 13.761719 6.558594 13.835938 6.597656 13.671875 6.878906 Z M 13.671875 6.878906 "/>
<path style=" stroke:none;fill-rule:nonzero;fill:rgb(0%,0%,0%);fill-opacity:1;" d="M 12.390625 4.550781 C 12.328125 4.652344 12.425781 4.78125 12.558594 4.78125 C 12.667969 4.78125 12.695312 4.753906 12.695312 4.640625 C 12.695312 4.527344 12.667969 4.5 12.558594 4.5 C 12.480469 4.5 12.40625 4.523438 12.390625 4.550781 Z M 12.390625 4.550781 "/>
<path style=" stroke:none;fill-rule:nonzero;fill:rgb(0%,0%,0%);fill-opacity:1;" d="M 13.695312 4.539062 C 13.621094 4.605469 13.65625 4.769531 13.75 4.804688 C 13.871094 4.847656 14.023438 4.707031 13.976562 4.589844 C 13.941406 4.5 13.761719 4.464844 13.695312 4.539062 Z M 13.695312 4.539062 "/>
<path style=" stroke:none;fill-rule:nonzero;fill:rgb(0%,0%,0%);fill-opacity:1;" d="M 12.582031 5.203125 C 12.582031 5.269531 12.683594 5.289062 13.148438 5.289062 C 13.609375 5.289062 13.710938 5.269531 13.710938 5.203125 C 13.710938 5.136719 13.609375 5.117188 13.148438 5.117188 C 12.683594 5.117188 12.582031 5.136719 12.582031 5.203125 Z M 12.582031 5.203125 "/>
<path style=" stroke:none;fill-rule:nonzero;fill:rgb(0%,0%,0%);fill-opacity:1;" d="M 8.265625 2.667969 C 7.742188 2.914062 7.429688 3.371094 7.339844 4.023438 C 7.3125 4.234375 7.273438 4.894531 7.257812 5.484375 C 7.234375 6.070312 7.207031 6.875 7.1875 7.265625 C 7.15625 7.96875 7.15625 7.988281 7.273438 7.988281 C 7.378906 7.988281 7.390625 7.953125 7.390625 7.707031 C 7.390625 7.070312 7.949219 6.496094 8.605469 6.46875 C 8.730469 6.464844 8.859375 6.457031 8.894531 6.464844 C 8.9375 6.46875 8.964844 6.710938 8.984375 7.199219 C 8.996094 7.597656 9.015625 7.941406 9.039062 7.960938 C 9.078125 8 10.722656 8.003906 10.761719 7.96875 C 10.789062 7.941406 10.625 4.464844 10.578125 4.039062 C 10.507812 3.410156 10.191406 2.925781 9.695312 2.675781 C 9.292969 2.476562 8.679688 2.46875 8.265625 2.667969 Z M 9.429688 2.761719 C 9.542969 2.789062 9.75 2.914062 9.890625 3.039062 C 10.292969 3.390625 10.375 3.683594 10.4375 4.917969 C 10.46875 5.480469 10.496094 5.96875 10.496094 6.007812 C 10.496094 6.0625 10.421875 6.042969 10.257812 5.945312 C 10.121094 5.867188 9.910156 5.777344 9.777344 5.738281 L 9.546875 5.664062 L 9.734375 5.320312 C 9.847656 5.125 9.949219 4.832031 9.976562 4.640625 C 10.011719 4.453125 10.027344 4.304688 10.019531 4.296875 C 10.019531 4.296875 9.914062 4.257812 9.789062 4.214844 C 9.511719 4.113281 9.308594 3.832031 9.308594 3.542969 C 9.308594 3.269531 9.207031 2.992188 9.085938 2.925781 C 8.9375 2.847656 8.886719 2.953125 8.996094 3.105469 C 9.1875 3.378906 9.039062 3.914062 8.722656 4.117188 C 8.589844 4.195312 8.476562 4.21875 8.242188 4.203125 L 7.945312 4.179688 L 7.972656 4.546875 C 7.996094 4.816406 8.050781 5.015625 8.199219 5.296875 C 8.328125 5.546875 8.375 5.679688 8.324219 5.679688 C 8.285156 5.679688 8.082031 5.765625 7.867188 5.871094 C 7.652344 5.980469 7.472656 6.058594 7.453125 6.042969 C 7.441406 6.03125 7.453125 5.507812 7.480469 4.875 C 7.53125 3.75 7.539062 3.734375 7.707031 3.429688 C 7.910156 3.070312 8.222656 2.828125 8.617188 2.722656 C 8.882812 2.648438 9.023438 2.660156 9.429688 2.761719 Z M 9.632812 4.363281 C 9.734375 4.410156 9.816406 4.464844 9.816406 4.496094 C 9.816406 4.71875 9.558594 5.304688 9.367188 5.53125 C 9.1875 5.730469 9.140625 5.828125 9.140625 6 C 9.140625 6.265625 9.125 6.292969 8.945312 6.253906 C 8.820312 6.234375 8.800781 6.199219 8.800781 6.007812 C 8.800781 5.832031 8.757812 5.730469 8.582031 5.523438 C 8.34375 5.238281 8.222656 4.988281 8.160156 4.652344 C 8.125 4.460938 8.132812 4.445312 8.25 4.445312 C 8.515625 4.445312 8.8125 4.320312 8.988281 4.132812 L 9.167969 3.941406 L 9.304688 4.117188 C 9.378906 4.214844 9.523438 4.324219 9.632812 4.363281 Z M 10.011719 6.046875 C 10.4375 6.261719 10.472656 6.300781 10.511719 6.625 L 10.546875 6.925781 L 10.292969 6.699219 C 10.050781 6.492188 9.636719 6.300781 9.410156 6.300781 C 9.332031 6.300781 9.308594 6.253906 9.308594 6.070312 L 9.308594 5.832031 L 9.519531 5.867188 C 9.632812 5.890625 9.851562 5.96875 10.011719 6.046875 Z M 10.011719 6.046875 "/>
<path style=" stroke:none;fill-rule:nonzero;fill:rgb(0%,0%,0%);fill-opacity:1;" d="M 4.078125 9.15625 C 3.285156 9.4375 2.882812 10.175781 3.125 10.914062 C 3.210938 11.164062 3.210938 11.210938 3.132812 11.363281 C 2.949219 11.707031 3.023438 11.902344 3.464844 12.25 C 3.539062 12.308594 3.554688 12.4375 3.554688 12.882812 C 3.554688 13.433594 3.550781 13.449219 3.363281 13.695312 C 3.164062 13.949219 3.019531 14.421875 3.050781 14.675781 L 3.074219 14.816406 L 3.753906 14.800781 C 4.125 14.792969 4.445312 14.769531 4.46875 14.761719 C 4.546875 14.710938 4.519531 14.28125 4.421875 14.089844 C 4.316406 13.867188 4.140625 13.742188 3.855469 13.679688 L 3.640625 13.636719 L 3.863281 13.484375 C 4.292969 13.203125 5.179688 13.152344 5.644531 13.386719 C 6.070312 13.605469 6.375 14.074219 6.375 14.511719 C 6.375 14.703125 6.394531 14.738281 6.496094 14.738281 C 6.601562 14.738281 6.609375 14.714844 6.574219 14.445312 C 6.496094 13.832031 6.179688 13.421875 5.609375 13.191406 C 5.429688 13.117188 5.269531 13.023438 5.257812 12.976562 C 5.246094 12.925781 5.339844 12.835938 5.46875 12.761719 C 5.597656 12.695312 5.765625 12.539062 5.847656 12.421875 C 5.929688 12.300781 6.03125 12.207031 6.070312 12.207031 C 6.109375 12.207031 6.21875 12.144531 6.308594 12.066406 C 6.457031 11.941406 6.476562 11.886719 6.515625 11.4375 C 6.546875 11.164062 6.566406 10.773438 6.566406 10.570312 C 6.5625 9.949219 6.242188 9.472656 5.648438 9.207031 C 5.277344 9.039062 4.472656 9.015625 4.078125 9.15625 Z M 4.871094 10.160156 C 4.972656 10.210938 5.246094 10.441406 5.492188 10.675781 L 5.925781 11.109375 L 5.925781 11.429688 C 5.925781 11.683594 5.941406 11.757812 6.007812 11.757812 C 6.070312 11.757812 6.09375 11.695312 6.09375 11.519531 C 6.09375 11.296875 6.09375 11.289062 6.207031 11.390625 C 6.4375 11.597656 6.269531 12.039062 5.957031 12.039062 C 5.867188 12.039062 5.804688 12.078125 5.785156 12.144531 C 5.726562 12.324219 5.328125 12.644531 5.074219 12.710938 C 4.621094 12.835938 4.199219 12.671875 3.894531 12.25 C 3.757812 12.070312 3.683594 12.015625 3.582031 12.027344 C 3.5 12.039062 3.414062 11.992188 3.335938 11.890625 C 3.1875 11.707031 3.183594 11.570312 3.316406 11.441406 C 3.40625 11.34375 3.414062 11.351562 3.441406 11.535156 C 3.457031 11.65625 3.503906 11.726562 3.554688 11.726562 C 3.617188 11.726562 3.644531 11.632812 3.671875 11.335938 C 3.71875 10.792969 3.910156 10.316406 4.140625 10.175781 C 4.355469 10.046875 4.628906 10.039062 4.871094 10.160156 Z M 4.332031 12.988281 C 4.351562 13.078125 4.328125 13.113281 4.277344 13.09375 C 4.238281 13.078125 4.191406 13.011719 4.1875 12.941406 C 4.167969 12.851562 4.191406 12.820312 4.242188 12.835938 C 4.28125 12.851562 4.328125 12.921875 4.332031 12.988281 Z M 5.078125 12.992188 C 5.078125 13.023438 4.953125 13.050781 4.796875 13.050781 C 4.644531 13.050781 4.515625 13.023438 4.515625 12.992188 C 4.515625 12.960938 4.644531 12.9375 4.796875 12.9375 C 4.953125 12.9375 5.078125 12.960938 5.078125 12.992188 Z M 5.078125 12.992188 "/>
<path style=" stroke:none;fill-rule:nonzero;fill:rgb(0%,0%,0%);fill-opacity:1;" d="M 3.964844 11.285156 C 3.925781 11.394531 4.089844 11.535156 4.214844 11.492188 C 4.261719 11.476562 4.289062 11.40625 4.277344 11.339844 C 4.253906 11.1875 4.023438 11.144531 3.964844 11.285156 Z M 3.964844 11.285156 "/>
<path style=" stroke:none;fill-rule:nonzero;fill:rgb(0%,0%,0%);fill-opacity:1;" d="M 5.304688 11.335938 C 5.304688 11.445312 5.332031 11.476562 5.441406 11.476562 C 5.582031 11.476562 5.644531 11.390625 5.601562 11.261719 C 5.585938 11.226562 5.511719 11.195312 5.441406 11.195312 C 5.332031 11.195312 5.304688 11.222656 5.304688 11.335938 Z M 5.304688 11.335938 "/>
<path style=" stroke:none;fill-rule:nonzero;fill:rgb(0%,0%,0%);fill-opacity:1;" d="M 4.441406 11.859375 C 4.210938 12.109375 4.414062 12.460938 4.796875 12.460938 C 5.179688 12.460938 5.398438 12.078125 5.144531 11.851562 C 5 11.71875 4.558594 11.722656 4.441406 11.859375 Z M 5.050781 12.09375 C 5.050781 12.199219 5.015625 12.238281 4.914062 12.25 C 4.695312 12.285156 4.515625 12.210938 4.515625 12.097656 C 4.515625 11.964844 4.597656 11.929688 4.851562 11.941406 C 5.023438 11.953125 5.050781 11.96875 5.050781 12.09375 Z M 5.050781 12.09375 "/>
<path style=" stroke:none;fill-rule:nonzero;fill:rgb(0%,0%,0%);fill-opacity:1;" d="M 8.746094 9.175781 C 8.261719 9.253906 7.742188 9.539062 7.492188 9.871094 C 7.289062 10.136719 7.109375 10.59375 7.019531 11.054688 L 6.980469 11.261719 L 7.273438 11.113281 C 7.625 10.933594 7.664062 11.023438 7.363281 11.324219 C 7.085938 11.597656 7.117188 11.953125 7.441406 12.132812 C 7.53125 12.1875 7.644531 12.3125 7.691406 12.421875 C 7.777344 12.601562 7.769531 12.617188 7.640625 12.808594 C 7.5 13.023438 7.464844 13.269531 7.5625 13.445312 C 7.601562 13.515625 7.601562 13.5625 7.5625 13.585938 C 7.449219 13.65625 7.234375 14.152344 7.222656 14.371094 C 7.207031 14.703125 7.21875 14.738281 7.308594 14.738281 C 7.371094 14.738281 7.390625 14.675781 7.390625 14.511719 C 7.390625 14.203125 7.589844 13.816406 7.867188 13.578125 L 8.097656 13.382812 L 8.140625 13.511719 C 8.351562 14.0625 8.542969 14.230469 8.960938 14.230469 C 9.371094 14.230469 9.710938 13.976562 9.789062 13.613281 C 9.835938 13.398438 9.878906 13.40625 10.121094 13.613281 C 10.371094 13.832031 10.550781 14.203125 10.550781 14.5 C 10.550781 14.699219 10.570312 14.738281 10.664062 14.738281 C 10.753906 14.738281 10.777344 14.699219 10.777344 14.570312 C 10.777344 14.339844 10.621094 13.898438 10.46875 13.691406 C 10.367188 13.5625 10.347656 13.5 10.394531 13.421875 C 10.476562 13.269531 10.410156 12.890625 10.273438 12.746094 C 10.171875 12.640625 10.167969 12.601562 10.222656 12.414062 C 10.257812 12.300781 10.320312 12.207031 10.359375 12.207031 C 10.398438 12.207031 10.496094 12.128906 10.578125 12.027344 C 10.777344 11.796875 10.742188 11.515625 10.507812 11.300781 C 10.273438 11.09375 10.214844 10.738281 10.296875 10.164062 C 10.410156 9.433594 9.738281 9.003906 8.746094 9.175781 Z M 10.089844 11.296875 C 10.105469 11.710938 10.117188 11.757812 10.214844 11.757812 C 10.304688 11.757812 10.324219 11.71875 10.324219 11.582031 C 10.324219 11.351562 10.460938 11.394531 10.484375 11.632812 C 10.507812 11.859375 10.417969 12.027344 10.257812 12.046875 C 10.179688 12.058594 10.117188 12.132812 10.066406 12.28125 C 9.890625 12.785156 9.511719 13.050781 8.964844 13.050781 C 8.417969 13.042969 7.980469 12.742188 7.835938 12.261719 C 7.792969 12.109375 7.734375 12.039062 7.667969 12.039062 C 7.429688 12.039062 7.289062 11.632812 7.472656 11.480469 C 7.539062 11.425781 7.554688 11.441406 7.574219 11.570312 C 7.601562 11.847656 7.757812 11.765625 7.777344 11.46875 C 7.792969 11.210938 7.796875 11.203125 8.085938 11.074219 C 8.34375 10.957031 8.453125 10.941406 9 10.953125 C 9.429688 10.964844 9.671875 10.941406 9.789062 10.890625 C 9.886719 10.84375 9.988281 10.816406 10.015625 10.824219 C 10.050781 10.832031 10.078125 11.042969 10.089844 11.296875 Z M 9.300781 13.332031 C 9.269531 13.472656 8.945312 13.527344 8.773438 13.421875 C 8.695312 13.371094 8.632812 13.308594 8.632812 13.285156 C 8.632812 13.265625 8.785156 13.246094 8.972656 13.246094 C 9.242188 13.246094 9.308594 13.265625 9.300781 13.332031 Z M 8.972656 13.667969 C 9.140625 13.667969 9.242188 13.625 9.394531 13.496094 C 9.554688 13.355469 9.597656 13.335938 9.625 13.40625 C 9.675781 13.539062 9.480469 13.886719 9.304688 13.976562 C 9.21875 14.023438 9.054688 14.0625 8.9375 14.0625 C 8.660156 14.0625 8.351562 13.765625 8.351562 13.5 L 8.351562 13.320312 L 8.546875 13.496094 C 8.699219 13.625 8.800781 13.667969 8.972656 13.667969 Z M 8.972656 13.667969 "/>
<path style=" stroke:none;fill-rule:nonzero;fill:rgb(0%,0%,0%);fill-opacity:1;" d="M 8.238281 11.277344 C 8.140625 11.390625 8.210938 11.53125 8.351562 11.53125 C 8.414062 11.53125 8.480469 11.492188 8.496094 11.445312 C 8.53125 11.363281 8.4375 11.195312 8.351562 11.195312 C 8.328125 11.195312 8.277344 11.234375 8.238281 11.277344 Z M 8.238281 11.277344 "/>
<path style=" stroke:none;fill-rule:nonzero;fill:rgb(0%,0%,0%);fill-opacity:1;" d="M 9.445312 11.335938 C 9.421875 11.386719 9.445312 11.464844 9.492188 11.507812 C 9.605469 11.621094 9.773438 11.546875 9.75 11.394531 C 9.726562 11.25 9.496094 11.199219 9.445312 11.335938 Z M 9.445312 11.335938 "/>
<path style=" stroke:none;fill-rule:nonzero;fill:rgb(0%,0%,0%);fill-opacity:1;" d="M 8.386719 11.851562 C 8.261719 11.976562 8.628906 12.207031 8.945312 12.207031 C 9.214844 12.207031 9.585938 12.007812 9.492188 11.914062 C 9.445312 11.867188 9.371094 11.878906 9.238281 11.949219 C 8.984375 12.066406 8.875 12.058594 8.621094 11.929688 C 8.515625 11.867188 8.402344 11.835938 8.386719 11.851562 Z M 8.386719 11.851562 "/>
<path style=" stroke:none;fill-rule:nonzero;fill:rgb(0%,0%,0%);fill-opacity:1;" d="M 12.757812 9.34375 C 12.621094 9.421875 12.550781 9.4375 12.507812 9.398438 C 12.386719 9.277344 12.238281 9.335938 12.085938 9.589844 C 11.980469 9.765625 11.894531 9.839844 11.808594 9.84375 C 11.664062 9.84375 11.566406 9.996094 11.566406 10.230469 C 11.566406 10.34375 11.539062 10.40625 11.488281 10.40625 C 11.339844 10.40625 11.359375 10.546875 11.542969 10.824219 L 11.730469 11.097656 L 11.566406 11.25 C 11.230469 11.566406 11.3125 12.019531 11.738281 12.195312 C 11.882812 12.257812 11.960938 12.324219 11.960938 12.390625 C 11.960938 12.5625 12.144531 12.824219 12.347656 12.949219 L 12.539062 13.066406 L 12.273438 13.195312 C 11.707031 13.460938 11.375 13.976562 11.410156 14.53125 L 11.425781 14.820312 L 12.246094 14.804688 C 12.78125 14.789062 13.078125 14.761719 13.101562 14.71875 C 13.125 14.679688 13.148438 14.5 13.148438 14.316406 L 13.148438 13.972656 L 12.898438 13.90625 C 12.667969 13.84375 12.246094 13.546875 12.246094 13.449219 C 12.246094 13.425781 12.304688 13.375 12.386719 13.34375 C 12.515625 13.28125 12.542969 13.292969 12.683594 13.449219 C 12.957031 13.746094 13.582031 13.714844 13.683594 13.386719 C 13.734375 13.234375 13.8125 13.246094 14.125 13.4375 C 14.492188 13.675781 14.6875 13.988281 14.714844 14.40625 C 14.738281 14.6875 14.753906 14.738281 14.847656 14.738281 C 14.929688 14.738281 14.953125 14.699219 14.953125 14.5625 C 14.953125 14.023438 14.636719 13.5 14.144531 13.246094 L 13.835938 13.082031 L 14.085938 12.851562 C 14.238281 12.710938 14.34375 12.554688 14.367188 12.441406 C 14.390625 12.339844 14.445312 12.25 14.5 12.234375 C 14.703125 12.171875 14.890625 11.96875 14.929688 11.789062 C 14.96875 11.554688 14.835938 11.273438 14.632812 11.175781 L 14.484375 11.113281 L 14.523438 10.53125 C 14.546875 10.214844 14.574219 9.878906 14.59375 9.792969 C 14.632812 9.589844 14.484375 9.425781 14.296875 9.472656 C 14.203125 9.5 14.164062 9.476562 14.136719 9.394531 C 14.09375 9.265625 13.949219 9.246094 13.796875 9.359375 C 13.699219 9.425781 13.679688 9.421875 13.59375 9.316406 C 13.496094 9.195312 13.492188 9.195312 13.320312 9.296875 C 13.164062 9.394531 13.136719 9.394531 13.058594 9.316406 C 12.949219 9.207031 12.988281 9.203125 12.757812 9.34375 Z M 14.265625 10.675781 C 14.320312 10.714844 14.320312 10.894531 14.253906 11.609375 C 14.164062 12.59375 14.136719 12.667969 13.699219 12.886719 C 13.265625 13.105469 12.488281 12.964844 12.265625 12.621094 C 12.214844 12.550781 12.132812 12.207031 12.074219 11.859375 C 12.011719 11.507812 11.957031 11.148438 11.941406 11.0625 C 11.90625 10.890625 11.949219 10.863281 12.5 10.714844 C 12.808594 10.632812 14.144531 10.601562 14.265625 10.675781 Z M 11.90625 11.992188 C 11.90625 12.070312 11.777344 12.042969 11.667969 11.941406 C 11.539062 11.828125 11.539062 11.542969 11.664062 11.402344 C 11.757812 11.300781 11.765625 11.304688 11.832031 11.625 C 11.871094 11.808594 11.898438 11.96875 11.90625 11.992188 Z M 14.75 11.71875 C 14.710938 11.859375 14.5625 12.039062 14.492188 12.039062 C 14.433594 12.039062 14.429688 11.527344 14.484375 11.386719 C 14.519531 11.300781 14.535156 11.304688 14.652344 11.441406 C 14.746094 11.554688 14.777344 11.636719 14.75 11.71875 Z M 13.542969 13.257812 C 13.542969 13.4375 13 13.511719 12.84375 13.355469 C 12.792969 13.308594 12.753906 13.253906 12.753906 13.230469 C 12.753906 13.207031 12.933594 13.191406 13.148438 13.191406 C 13.417969 13.191406 13.542969 13.214844 13.542969 13.257812 Z M 13.542969 13.257812 "/>
<path style=" stroke:none;fill-rule:nonzero;fill:rgb(0%,0%,0%);fill-opacity:1;" d="M 12.347656 10.917969 C 12.289062 10.945312 12.246094 11.015625 12.246094 11.0625 C 12.246094 11.132812 12.277344 11.144531 12.402344 11.109375 C 12.589844 11.0625 12.660156 10.996094 12.617188 10.917969 C 12.566406 10.839844 12.46875 10.839844 12.347656 10.917969 Z M 12.347656 10.917969 "/>
<path style=" stroke:none;fill-rule:nonzero;fill:rgb(0%,0%,0%);fill-opacity:1;" d="M 13.671875 10.941406 C 13.632812 11.046875 13.644531 11.0625 13.839844 11.109375 C 13.972656 11.144531 13.992188 11.132812 13.992188 11.035156 C 13.992188 10.863281 13.734375 10.789062 13.671875 10.941406 Z M 13.671875 10.941406 "/>
<path style=" stroke:none;fill-rule:nonzero;fill:rgb(0%,0%,0%);fill-opacity:1;" d="M 13.007812 11.09375 C 12.804688 11.199219 12.753906 11.324219 12.753906 11.683594 C 12.753906 11.976562 12.734375 12.042969 12.640625 12.09375 C 12.515625 12.160156 12.488281 12.371094 12.59375 12.476562 C 12.695312 12.578125 13.679688 12.566406 13.769531 12.464844 C 13.863281 12.339844 13.8125 12.128906 13.671875 12.066406 C 13.566406 12.019531 13.542969 11.964844 13.542969 11.726562 C 13.542969 11.328125 13.492188 11.199219 13.3125 11.109375 C 13.125 11.015625 13.148438 11.015625 13.007812 11.09375 Z M 13.304688 11.625 L 13.320312 11.980469 L 12.976562 11.980469 L 12.976562 11.65625 C 12.976562 11.289062 13.007812 11.238281 13.175781 11.261719 C 13.269531 11.277344 13.289062 11.324219 13.304688 11.625 Z M 13.304688 11.625 "/>
<path style=" stroke:none;fill-rule:nonzero;fill:rgb(0%,0%,0%);fill-opacity:1;" d="M 12.367188 11.300781 C 12.253906 11.367188 12.3125 11.558594 12.441406 11.558594 C 12.519531 11.558594 12.554688 11.519531 12.554688 11.425781 C 12.554688 11.273438 12.480469 11.226562 12.367188 11.300781 Z M 12.367188 11.300781 "/>
<path style=" stroke:none;fill-rule:nonzero;fill:rgb(0%,0%,0%);fill-opacity:1;" d="M 13.773438 11.304688 C 13.667969 11.367188 13.722656 11.558594 13.851562 11.558594 C 13.925781 11.558594 13.972656 11.515625 13.984375 11.441406 C 14 11.3125 13.886719 11.234375 13.773438 11.304688 Z M 13.773438 11.304688 "/>
</g>
</svg>
