<?xml version="1.0" standalone="no"?>
<!DOCTYPE svg PUBLIC "-//W3C//DTD SVG 20010904//EN"
 "http://www.w3.org/TR/2001/REC-SVG-20010904/DTD/svg10.dtd">
<svg version="1.0" xmlns="http://www.w3.org/2000/svg"
 width="319.000000pt" height="320.000000pt" viewBox="0 0 319.000000 320.000000"
 preserveAspectRatio="xMidYMid meet">

<g transform="translate(0.000000,320.000000) scale(0.100000,-0.100000)"
fill="#000000" stroke="none">
<path d="M680 3119 c-222 -22 -386 -157 -463 -379 l-22 -65 -3 -1042 c-3
-1129 -3 -1119 51 -1236 74 -159 226 -276 398 -306 45 -8 340 -11 955 -11 974
0 963 0 1092 60 77 36 193 148 235 227 15 28 36 86 47 129 19 74 20 114 20
1109 0 995 -1 1035 -20 1109 -59 231 -234 381 -475 406 -106 11 -1705 11
-1815 -1z m1913 -167 c81 -33 168 -116 209 -200 l33 -67 0 -1080 0 -1080 -32
-67 c-58 -123 -157 -196 -300 -224 -107 -20 -1709 -20 -1825 0 -98 18 -166 55
-233 128 -63 68 -92 138 -106 253 -13 112 -12 1876 1 1990 13 107 41 175 102
241 53 58 106 92 178 115 51 17 118 18 985 16 l930 -2 58 -23z"/>
<path d="M784 2795 c-32 -16 -58 -39 -74 -64 -21 -33 -29 -38 -51 -34 -20 4
-31 -2 -48 -23 -19 -24 -22 -37 -17 -74 16 -116 18 -190 7 -190 -7 0 -23 -11
-36 -25 -45 -44 -27 -133 30 -155 17 -6 25 -20 30 -48 4 -24 20 -56 41 -80 33
-39 33 -41 14 -47 -38 -12 -93 -69 -116 -120 -28 -59 -34 -148 -9 -139 9 4 15
19 15 42 0 50 35 116 83 157 22 19 44 35 48 35 3 0 9 -13 12 -29 8 -39 51 -88
92 -103 32 -11 35 -15 35 -53 0 -66 0 -66 168 -64 l152 2 0 54 c0 89 -45 165
-122 204 l-40 21 37 38 c29 30 38 48 42 84 4 29 11 46 19 46 7 0 25 11 41 24
23 20 28 32 27 67 -1 34 -8 48 -31 69 l-29 26 31 14 c41 20 60 63 49 109 -8
32 -27 49 -68 64 -6 2 -10 27 -11 55 -1 40 -7 58 -26 78 -21 22 -30 25 -66 20
-32 -4 -43 -2 -43 7 0 8 -10 23 -23 35 -32 31 -98 29 -163 -3z m150 -39 c18
-43 31 -51 66 -36 49 20 69 1 72 -73 3 -61 4 -62 41 -80 20 -10 37 -24 37 -30
0 -8 -3 -9 -8 -1 -16 23 -77 34 -289 50 -198 16 -223 20 -223 35 0 35 11 48
33 40 32 -12 45 -4 67 38 28 56 85 88 157 90 28 1 35 -4 47 -33z m-8 -336 c16
0 42 9 58 19 22 15 34 17 48 10 16 -9 18 -25 18 -147 l0 -137 -97 -92 c-54
-51 -100 -93 -104 -93 -4 0 -47 39 -97 88 -83 80 -91 91 -97 135 -4 29 -11 47
-19 47 -7 0 -25 9 -40 21 -31 25 -35 68 -7 93 19 17 20 17 23 -15 2 -18 9 -34
16 -37 9 -3 12 19 12 88 l0 91 22 -15 c31 -22 97 -20 132 4 l30 19 36 -39 c27
-29 45 -40 66 -40z m192 -52 c27 -27 5 -108 -29 -108 -10 0 -12 79 -3 104 7
19 16 20 32 4z m-100 -352 c15 -8 38 -26 52 -41 20 -21 22 -28 10 -35 -21 -13
-131 -23 -205 -18 -54 3 -69 8 -94 32 -34 33 -49 71 -23 57 10 -5 30 -23 46
-40 17 -17 35 -31 42 -31 7 0 34 20 61 45 52 48 69 53 111 31z"/>
<path d="M717 2395 c-21 -21 -11 -45 20 -45 21 0 24 4 21 27 -4 32 -20 39 -41
18z"/>
<path d="M950 2395 c-17 -20 -5 -45 20 -45 11 0 23 7 26 15 6 15 -11 45 -26
45 -4 0 -13 -7 -20 -15z"/>
<path d="M722 2258 c-19 -19 -14 -45 10 -62 17 -12 48 -16 123 -16 116 0 139
9 133 55 l-3 30 -125 3 c-89 2 -129 -1 -138 -10z m238 -28 c0 -6 -42 -10 -105
-10 -63 0 -105 4 -105 10 0 6 42 10 105 10 63 0 105 -4 105 -10z"/>
<path d="M2241 2784 c-50 -14 -57 -23 -72 -79 -10 -38 -12 -40 -49 -41 -82 -3
-140 -66 -140 -152 0 -36 6 -50 33 -77 32 -32 32 -32 15 -61 -10 -16 -18 -38
-18 -49 0 -29 35 -82 59 -90 18 -6 21 -14 21 -70 0 -60 2 -66 28 -82 15 -9 28
-18 30 -19 2 -1 -21 -26 -51 -56 -43 -41 -59 -65 -71 -107 -22 -77 -21 -111 4
-111 17 0 20 7 20 43 0 23 9 60 19 82 17 39 91 115 111 115 5 0 14 -17 20 -38
16 -61 71 -102 137 -102 56 0 101 32 127 91 l22 50 29 -23 c61 -47 95 -109 95
-173 0 -39 3 -46 18 -43 13 3 17 13 15 47 -4 91 -55 171 -135 212 -22 11 -38
23 -36 27 20 44 93 152 104 152 25 0 65 45 70 81 5 30 1 41 -25 71 -39 44 -39
77 -2 117 33 36 42 71 30 117 -9 32 -50 74 -73 74 -6 0 -16 10 -21 22 -6 12
-22 31 -38 42 -27 20 -29 20 -105 3 -42 -9 -86 -19 -98 -22 -18 -6 -20 -3 -16
23 5 38 -4 42 -57 26z m4 -54 c-22 -24 -35 -26 -35 -5 0 9 10 19 23 24 30 12
34 5 12 -19z m253 -6 c40 -28 28 -42 -29 -33 -28 4 -76 6 -108 4 -31 -2 -49
-1 -41 2 13 6 136 40 150 42 3 1 16 -6 28 -15z m-356 -111 c4 -16 -3 -18 -50
-19 -55 -1 -55 -1 -32 18 29 23 76 24 82 1z m131 -118 c20 -8 49 -15 64 -15
14 0 46 -10 70 -21 34 -16 57 -20 95 -17 l50 5 -7 -62 c-7 -71 8 -98 26 -46
13 36 24 39 39 10 18 -32 -5 -77 -44 -87 -24 -6 -38 -21 -62 -64 -38 -66 -141
-208 -152 -207 -4 0 -56 28 -117 63 l-110 62 4 72 c3 69 2 72 -20 72 -48 0
-74 53 -49 101 16 29 30 23 30 -12 0 -24 4 -30 18 -27 12 2 18 15 20 43 3 28
13 50 38 77 23 26 34 48 34 70 0 29 1 30 18 15 10 -9 34 -23 55 -32z m150
-518 c-47 -80 -161 -68 -188 21 -6 21 -3 20 53 -13 33 -19 65 -35 71 -35 5 0
25 18 43 40 37 44 50 37 21 -13z"/>
<path d="M2196 2391 c-11 -18 6 -41 30 -41 19 0 24 5 24 25 0 20 -5 25 -24 25
-14 0 -27 -4 -30 -9z"/>
<path d="M2427 2393 c-13 -12 -7 -41 10 -47 21 -8 48 17 40 38 -6 16 -38 22
-50 9z"/>
<path d="M2230 2275 c0 -12 18 -15 100 -15 82 0 100 3 100 15 0 12 -18 15
-100 15 -82 0 -100 -3 -100 -15z"/>
<path d="M1465 2726 c-93 -44 -148 -125 -164 -241 -5 -38 -12 -155 -15 -260
-4 -104 -9 -247 -12 -317 -6 -125 -6 -128 15 -128 19 0 21 6 21 50 0 113 99
215 215 220 22 1 45 2 51 1 8 -1 13 -44 16 -131 2 -71 6 -132 10 -135 7 -7
298 -8 305 -2 5 5 -24 623 -32 699 -13 112 -69 198 -157 242 -71 36 -180 37
-253 2z m206 -17 c20 -5 57 -27 82 -49 71 -63 86 -115 97 -334 5 -100 10 -187
10 -194 0 -10 -13 -6 -42 11 -24 14 -62 30 -85 37 l-41 13 33 61 c20 35 38 87
43 121 6 33 9 60 8 61 0 0 -19 7 -41 15 -49 18 -85 68 -85 119 0 49 -18 98
-40 110 -26 14 -35 -5 -16 -32 34 -49 8 -144 -48 -180 -24 -14 -44 -18 -85
-15 l-53 4 5 -65 c4 -48 14 -84 40 -134 23 -44 31 -68 22 -68 -7 0 -43 -15
-81 -34 -38 -19 -70 -33 -73 -30 -2 2 0 95 5 207 9 200 10 203 40 257 36 64
91 107 161 126 47 13 72 11 144 -7z m36 -285 c18 -8 33 -18 33 -23 0 -40 -46
-144 -80 -184 -32 -36 -40 -53 -40 -84 0 -47 -3 -52 -35 -45 -22 4 -25 10 -25
44 0 31 -8 49 -39 86 -42 51 -64 95 -75 155 -6 34 -5 37 16 37 47 0 100 22
131 55 l32 34 24 -31 c13 -17 39 -37 58 -44z m67 -299 c76 -38 82 -45 89 -103
l6 -53 -45 40 c-43 37 -116 71 -156 71 -14 0 -18 8 -18 41 l0 42 37 -6 c20 -4
59 -18 87 -32z"/>
<path d="M723 1572 c-141 -50 -212 -181 -169 -312 15 -45 15 -53 1 -80 -32
-61 -19 -96 59 -158 13 -10 16 -33 16 -112 0 -98 -1 -101 -34 -145 -35 -45
-61 -129 -55 -174 l4 -25 120 3 c66 1 123 5 127 7 14 9 9 85 -8 119 -19 40
-50 62 -101 73 l-38 8 40 27 c76 50 233 59 315 17 76 -39 130 -122 130 -200 0
-34 3 -40 21 -40 19 0 20 4 14 52 -14 109 -70 182 -171 223 -32 13 -60 30 -62
38 -2 9 14 25 37 38 23 12 53 40 67 61 15 21 33 38 40 38 7 0 26 11 42 25 26
22 30 32 37 112 5 48 9 118 9 154 -1 110 -58 195 -163 242 -66 30 -208 34
-278 9z m140 -178 c18 -9 67 -50 110 -92 l77 -77 0 -57 c0 -45 3 -58 15 -58
11 0 15 11 15 42 0 40 0 41 20 23 41 -37 11 -115 -44 -115 -16 0 -27 -7 -31
-19 -10 -32 -81 -89 -126 -101 -80 -22 -155 7 -209 82 -24 32 -37 42 -55 40
-15 -2 -30 6 -44 24 -26 33 -27 57 -3 80 16 17 17 16 22 -17 3 -21 11 -34 20
-34 11 0 16 17 21 70 8 96 42 181 83 206 38 23 86 24 129 3z m-95 -503 c3 -16
-1 -22 -10 -19 -7 3 -15 15 -16 27 -3 16 1 22 10 19 7 -3 15 -15 16 -27z m132
-1 c0 -5 -22 -10 -50 -10 -27 0 -50 5 -50 10 0 6 23 10 50 10 28 0 50 -4 50
-10z"/>
<path d="M703 1194 c-7 -20 22 -45 44 -37 8 3 13 15 11 27 -4 27 -45 35 -55
10z"/>
<path d="M940 1185 c0 -20 5 -25 24 -25 25 0 36 15 29 38 -3 6 -16 12 -29 12
-19 0 -24 -5 -24 -25z"/>
<path d="M787 1092 c-41 -45 -5 -107 63 -107 68 0 107 68 62 108 -26 24 -104
23 -125 -1z m108 -42 c0 -19 -6 -26 -24 -28 -39 -6 -71 7 -71 27 0 24 15 30
60 28 30 -2 35 -5 35 -27z"/>
<path d="M1550 1569 c-86 -14 -178 -65 -222 -124 -36 -47 -68 -128 -84 -210
l-7 -37 52 26 c62 32 69 16 16 -37 -49 -49 -44 -112 14 -144 16 -10 36 -32 44
-51 15 -32 14 -35 -9 -69 -25 -38 -31 -82 -14 -113 7 -13 7 -21 0 -25 -20 -13
-58 -101 -60 -140 -3 -59 -1 -65 15 -65 11 0 15 11 15 40 0 55 35 124 84 166
l41 35 8 -23 c37 -98 71 -128 145 -128 73 0 133 45 147 110 8 38 16 37 59 0
44 -39 76 -105 76 -158 0 -35 3 -42 20 -42 16 0 20 7 20 30 0 41 -28 119 -55
156 -18 23 -21 34 -13 48 15 27 3 94 -21 120 -18 19 -19 26 -9 59 6 20 17 37
24 37 7 0 24 14 39 32 35 41 29 91 -13 129 -41 37 -52 100 -37 202 20 130 -99
206 -275 176z m238 -377 c3 -74 5 -82 22 -82 16 0 20 7 20 31 0 41 24 33 28
-9 4 -40 -12 -70 -40 -74 -14 -2 -25 -15 -34 -41 -31 -90 -98 -137 -195 -137
-97 1 -175 55 -200 140 -8 27 -18 40 -30 40 -42 0 -67 72 -35 99 12 10 15 7
18 -16 5 -49 33 -35 36 18 3 46 4 47 55 70 46 21 65 24 162 22 76 -2 119 2
140 11 17 8 35 13 40 12 6 -2 11 -39 13 -84z m-140 -362 c-5 -25 -63 -35 -93
-16 -14 9 -25 20 -25 24 0 4 27 7 60 7 48 0 60 -3 58 -15z m-58 -60 c30 0 48
8 75 31 28 25 36 28 41 16 9 -24 -26 -86 -57 -102 -15 -8 -44 -15 -65 -15 -49
0 -104 53 -104 100 l0 32 35 -31 c27 -23 45 -31 75 -31z"/>
<path d="M1460 1195 c-17 -20 -5 -45 20 -45 11 0 23 7 26 15 6 15 -11 45 -26
45 -4 0 -13 -7 -20 -15z"/>
<path d="M1674 1185 c-4 -9 0 -23 8 -31 20 -20 50 -7 46 20 -4 26 -45 35 -54
11z"/>
<path d="M1486 1093 c-22 -22 43 -63 99 -63 48 0 114 35 97 52 -8 8 -21 6 -45
-6 -45 -21 -64 -20 -109 3 -19 11 -39 17 -42 14z"/>
<path d="M2261 1539 c-24 -14 -37 -17 -44 -10 -22 22 -48 11 -75 -34 -19 -31
-34 -44 -49 -45 -26 0 -43 -27 -43 -69 0 -20 -5 -31 -14 -31 -26 0 -23 -25 10
-74 l33 -49 -29 -27 c-60 -56 -45 -137 30 -168 26 -11 40 -23 40 -35 0 -30 32
-77 68 -99 l34 -21 -47 -23 c-100 -47 -159 -139 -153 -237 l3 -52 145 3 c95 3
148 8 152 15 4 7 8 39 8 72 l0 61 -44 12 c-41 11 -116 64 -116 81 0 4 11 13
25 19 23 11 28 9 53 -19 48 -53 159 -47 177 11 9 27 23 25 78 -9 65 -42 100
-98 105 -172 4 -50 7 -59 23 -59 15 0 19 7 19 31 0 96 -56 189 -143 234 l-55
29 44 41 c27 25 46 53 50 73 4 18 14 34 24 37 36 11 69 47 76 79 7 42 -17 92
-53 109 l-26 11 7 104 c4 56 9 116 12 131 7 36 -19 65 -52 57 -17 -5 -24 -1
-29 14 -7 23 -33 26 -60 6 -17 -12 -21 -11 -36 8 -17 21 -18 21 -48 3 -28 -17
-33 -17 -47 -3 -19 19 -12 20 -53 -5z m267 -237 c10 -7 10 -39 -2 -166 -16
-175 -21 -188 -98 -227 -77 -39 -215 -14 -254 47 -9 13 -24 74 -34 136 -11 62
-21 126 -24 141 -6 31 2 36 99 62 55 15 292 20 313 7z m-418 -234 c0 -14 -23
-9 -42 9 -23 20 -23 71 -1 96 17 18 18 17 30 -40 7 -32 12 -61 13 -65z m504
49 c-7 -25 -33 -57 -46 -57 -10 0 -11 91 -1 116 6 15 9 14 30 -10 16 -20 22
-35 17 -49z m-214 -274 c0 -32 -96 -45 -124 -17 -9 8 -16 18 -16 22 0 4 32 7
70 7 48 0 70 -4 70 -12z"/>
<path d="M2188 1259 c-10 -5 -18 -17 -18 -26 0 -12 6 -14 28 -8 33 8 46 20 38
34 -9 14 -26 14 -48 0z"/>
<path d="M2423 1255 c-7 -19 -5 -22 30 -30 23 -6 27 -4 27 13 0 31 -46 44 -57
17z"/>
<path d="M2305 1228 c-36 -19 -45 -41 -45 -105 0 -52 -3 -64 -20 -73 -22 -12
-27 -49 -8 -68 18 -18 192 -16 208 2 17 22 8 60 -17 71 -19 8 -23 18 -23 60 0
71 -9 94 -41 110 -33 17 -29 17 -54 3z m53 -95 l3 -63 -31 0 -30 0 0 58 c0 65
5 74 35 70 17 -3 20 -11 23 -65z"/>
<path d="M2192 1191 c-20 -12 -10 -46 13 -46 14 0 20 7 20 24 0 27 -13 35 -33
22z"/>
<path d="M2441 1190 c-19 -11 -9 -45 14 -45 13 0 21 8 23 21 3 23 -17 37 -37
24z"/>
</g>
</svg>
